<svg id="Layer_1" data-name="Layer 1" xmlns="http://www.w3.org/2000/svg" viewBox="0 0 492.06 99.7"><defs><style>.cls-1{fill:#00578e;}</style></defs><title>br-logo-blue</title><g id="Page-1"><g id="BR_logo_knock_out_white_CC" data-name="BR logo knock out white CC"><g id="Group"><path id="Shape" class="cls-1" d="M143.32,81.07H126.07V28.52h17.52c9.7,0,18.05,3.23,18.05,13.2,0,6.74-3.5,10.51-9.43,12.13v.27c6.2,1.08,11.59,5.12,11.59,12.67.27,10.51-8.35,14.28-20.48,14.28m-.81-44.19H136v13.2h6.2c5.93,0,8.62-2.16,8.62-6.74,0-4.31-3-6.47-8.35-6.47m-.27,21.29h-6.47V72.72h5.93c6.47,0,9.7-1.89,9.7-7,.27-5.12-2.69-7.55-9.16-7.55" transform="translate(-4 -3.46)"/><path id="Shape-2" data-name="Shape" class="cls-1" d="M192.63,52a9.11,9.11,0,0,0-4-.81c-4.58,0-7.55,4-8.35,5.93V81.34H169.73V42.54h10.51v5.12a11.17,11.17,0,0,1,9.7-6.2c3,0,4.31.54,5.12,1.08Z" transform="translate(-4 -3.46)"/><path id="Shape-3" data-name="Shape" class="cls-1" d="M213.92,82.15c-13.47,0-19.4-10.24-19.4-19.94,0-10,5.66-20.21,19.13-20.21s19.4,10,19.4,19.94c.27,9.43-5.66,20.21-19.13,20.21m-.27-32.61c-5.93,0-7.81,5.12-7.81,12.13s2.43,12.4,8.35,12.4,8.08-4.85,8.08-12.13-2.69-12.4-8.62-12.4" transform="translate(-4 -3.46)"/><path id="Shape-4" data-name="Shape" class="cls-1" d="M259.19,81.07a20.8,20.8,0,0,1-.54-4,14.16,14.16,0,0,1-10.78,5.12c-6.47,0-11.59-4-11.59-10.78,0-10,10.24-13.74,20.48-13.74h1.35V55.47c0-3.23-1.35-5.39-6.2-5.39-5.12,0-8.35,2.69-9.7,3.5l-4.58-6.47c2.16-2.16,7.28-5.39,15.63-5.39,10.51,0,15.36,4,15.36,14.28V69.75a52.92,52.92,0,0,0,1.08,11.32Zm-2.16-17h-1.35c-6.2,0-10.51,1.89-10.51,6.47,0,3,2.16,4,4.58,4A9.82,9.82,0,0,0,257,71.1Z" transform="translate(-4 -3.46)"/><path id="Shape-5" data-name="Shape" class="cls-1" d="M291,41.73a14.28,14.28,0,0,1,8.89,2.69V24.48h10.51V70a48.09,48.09,0,0,0,1.08,11H301a20.43,20.43,0,0,1-.81-4.31,13.82,13.82,0,0,1-10.78,5.12c-9.7,0-15.9-7.28-15.9-20.21C274,49.54,281.29,41.73,291,41.73m1.89,31.8a9.74,9.74,0,0,0,7.28-3.77V52.51a9.85,9.85,0,0,0-6.74-2.43c-5.39,0-8.35,4.58-8.35,12.13,0,7,2.43,11.32,7.81,11.32" transform="translate(-4 -3.46)"/><path id="Shape-6" data-name="Shape" class="cls-1" d="M341.38,52a9.11,9.11,0,0,0-4-.81c-4.58,0-7.55,4-8.35,5.93V81.34H318.47V42.54H329v5.12a11.17,11.17,0,0,1,9.7-6.2c3,0,4.31.54,5.12,1.08Z" transform="translate(-4 -3.46)"/><path id="Shape-7" data-name="Shape" class="cls-1" d="M353.24,37.69a5.8,5.8,0,1,1,5.93-5.93,5.81,5.81,0,0,1-5.93,5.93" transform="translate(-4 -3.46)"/><rect id="Rectangle-path" class="cls-1" x="343.85" y="39.07" width="10.51" height="38.53"/><path id="Shape-8" data-name="Shape" class="cls-1" d="M381.53,41.73a14.28,14.28,0,0,1,8.89,2.69V24.48h10.51V70a48.09,48.09,0,0,0,1.08,11H391.5a20.43,20.43,0,0,1-.81-4.31,13.82,13.82,0,0,1-10.78,5.12c-9.7,0-15.9-7.28-15.9-20.21.27-12.13,7.81-19.94,17.52-19.94m1.89,31.8a9.75,9.75,0,0,0,7.28-3.77V52.51A9.85,9.85,0,0,0,384,50.08c-5.39,0-8.35,4.58-8.35,12.13,0,7,2.43,11.32,7.81,11.32" transform="translate(-4 -3.46)"/><path id="Shape-9" data-name="Shape" class="cls-1" d="M444.32,41.73v7.81H439.2a12.28,12.28,0,0,1,1.35,6.2c0,8.35-5.93,14-16.44,14-1.62,0-3.23-.27-4.58-.27-.54.54-1.35,1.08-1.35,2.16,0,2.16,2.16,2.43,7.81,2.69,8.08.27,18.05.54,18.05,11.86,0,8.08-8.35,14-21,14-10.51,0-17-3.23-17-10.24,0-4.31,2.69-7.28,6.47-9.43-2.16-1.35-3.5-3-3.5-5.93a8.59,8.59,0,0,1,4.31-7.28,12.74,12.74,0,0,1-6.74-11.59c0-8.35,6.47-14,17-14h20.75M414.95,87.81c0,3,2.16,5.12,7.55,5.12,6.47,0,10-2.43,10-5.66,0-4-3.5-4-9.16-4.31-1.89-.27-3.5-.27-5.12-.54a5.93,5.93,0,0,0-3.23,5.39m15.63-32.07c0-4.58-2.69-7.28-7-7.28s-7,2.69-7,7.28c0,4.31,2.69,7.28,7,7.28,4.31-.27,7-3,7-7.28" transform="translate(-4 -3.46)"/><path id="Shape-10" data-name="Shape" class="cls-1" d="M467.22,74.33c5.12,0,8.08-1.89,10-2.69l3.5,6.74a26.06,26.06,0,0,1-14.28,3.77c-12.93,0-20.21-8.08-20.21-20.48,0-12.13,8.35-19.94,19.13-19.94,12.13,0,17.79,8.35,16.44,22.64H457.25c.54,5.93,3.5,10,10,10Zm4.58-17.25c0-4.31-1.89-7.81-6.74-7.81-4.31,0-7,3-7.55,7.81Z" transform="translate(-4 -3.46)"/><path id="Shape-11" data-name="Shape" class="cls-1" d="M490.67,52.51a5.39,5.39,0,1,1,5.39-5.39,5.41,5.41,0,0,1-5.39,5.39Zm0-10a4.58,4.58,0,1,0,4.58,4.58,4.39,4.39,0,0,0-4.58-4.58Zm1.62,7.81-1.35-2.16c-.27-.54-.54-.54-1.08-.54v3h-1.08V43.88h2.16a1.92,1.92,0,0,1,2.16,1.89,1.43,1.43,0,0,1-1.62,1.62l.81.81,1.35,2.16Zm-1.62-5.66h-.81v1.89h.54c.81,0,1.35,0,1.35-1.08,0-.27-.27-.81-1.08-.81Z" transform="translate(-4 -3.46)"/></g><g id="Group-2" data-name="Group"><polygon id="Shape-12" data-name="Shape" class="cls-1" points="47.43 52.28 47.7 52.28 47.7 52.28 47.43 52.28"/><path id="Shape-13" data-name="Shape" class="cls-1" d="M92.66,3.73h0L4,3.46v99.7H92.66V3.73ZM73.25,71.64V76c-9.7,0-15.9-3-19.67-7a44.93,44.93,0,0,0,2.16,5.39c6.74,12.93,18.32,19.67,35,19.94v5.39C67.06,99.4,55.74,87,50.62,76.49a35.15,35.15,0,0,1-2.69-6.74c-7.81,19.4-29.37,19.67-29.64,19.67V83.5c1.08,0,26.41-.81,26.41-29.91h6.47c0-29.1,25.33-29.37,26.41-29.37V18.28c-.27,0-21.83.27-29.64,19.67a70.18,70.18,0,0,0-2.69-6.74C40.11,20.71,28.79,8.31,5.08,8V5.35H90.77V53.85H51.7C51.43,54.12,52,71.64,73.25,71.64ZM5.35,13.16c17,.27,28.56,7,35,19.94a28,28,0,0,1,2.16,5.39c-3.77-3.77-10-7-19.67-7V35.8c21.56,0,21.83,16.71,21.83,17.52H5.35Z" transform="translate(-4 -3.46)"/></g></g></g></svg>