<?xml version="1.0" encoding="utf-8"?>
<!-- Generator: Adobe Illustrator 21.1.0, SVG Export Plug-In . SVG Version: 6.00 Build 0)  -->
<svg version="1.1" id="Layer_1" xmlns="http://www.w3.org/2000/svg" xmlns:xlink="http://www.w3.org/1999/xlink" x="0px" y="0px"
	 viewBox="0 0 500 106" style="enable-background:new 0 0 500 106;" xml:space="preserve">
<style type="text/css">
	.st0{fill:#FFFFFF;}
</style>
<title>BR_logo_knock_out_white_CC</title>
<desc>Created with Sketch.</desc>
<g id="Page-1">
	<g id="BR_logo_knock_out_white_CC">
		<g id="Group" transform="translate(46.000000, 7.000000)">
			<path id="Shape" class="st0" d="M97.3,74.1H80.1V21.5h17.5c9.7,0,18.1,3.2,18.1,13.2c0,6.7-3.5,10.5-9.4,12.1v0.3
				c6.2,1.1,11.6,5.1,11.6,12.7C118.1,70.3,109.4,74.1,97.3,74.1 M96.5,29.9H90v13.2h6.2c5.9,0,8.6-2.2,8.6-6.7
				C104.9,32,101.9,29.9,96.5,29.9 M96.2,51.2h-6.5v14.6h5.9c6.5,0,9.7-1.9,9.7-7C105.7,53.6,102.7,51.2,96.2,51.2"/>
			<path id="Shape_1_" class="st0" d="M146.6,45c-0.5-0.3-1.9-0.8-4-0.8c-4.6,0-7.5,4-8.4,5.9v24.3h-10.5V35.5h10.5v5.1
				c1.6-3,4.9-6.2,9.7-6.2c3,0,4.3,0.5,5.1,1.1L146.6,45z"/>
			<path id="Shape_2_" class="st0" d="M167.9,75.1c-13.5,0-19.4-10.2-19.4-19.9c0-10,5.7-20.2,19.1-20.2S187,45,187,54.9
				C187.3,64.4,181.4,75.1,167.9,75.1 M167.6,42.5c-5.9,0-7.8,5.1-7.8,12.1s2.4,12.4,8.4,12.4c5.9,0,8.1-4.9,8.1-12.1
				S173.6,42.5,167.6,42.5"/>
			<path id="Shape_3_" class="st0" d="M213.2,74.1c-0.3-1.1-0.5-3-0.5-4c-1.9,2.2-5.4,5.1-10.8,5.1c-6.5,0-11.6-4-11.6-10.8
				c0-10,10.2-13.7,20.5-13.7h1.3v-2.2c0-3.2-1.3-5.4-6.2-5.4c-5.1,0-8.4,2.7-9.7,3.5l-4.6-6.5c2.2-2.2,7.3-5.4,15.6-5.4
				c10.5,0,15.4,4,15.4,14.3v13.7c0,5.1,0.5,8.9,1.1,11.3h-10.5V74.1z M211,57.1h-1.3c-6.2,0-10.5,1.9-10.5,6.5c0,3,2.2,4,4.6,4
				c3.8,0,5.9-2.2,7.3-3.5v-7H211z"/>
			<path id="Shape_4_" class="st0" d="M245,34.7c4.6,0,7.5,1.6,8.9,2.7V17.5h10.5V63c0,5.1,0.5,8.9,1.1,11H255
				c-0.3-1.1-0.8-3-0.8-4.3c-2.4,2.7-5.7,5.1-10.8,5.1c-9.7,0-15.9-7.3-15.9-20.2C228,42.5,235.3,34.7,245,34.7 M246.9,66.5
				c3.8,0,6.5-2.7,7.3-3.8V45.5c-1.3-1.1-3.2-2.4-6.7-2.4c-5.4,0-8.4,4.6-8.4,12.1C239.1,62.2,241.5,66.5,246.9,66.5"/>
			<path id="Shape_5_" class="st0" d="M295.4,45c-0.5-0.3-1.9-0.8-4-0.8c-4.6,0-7.5,4-8.4,5.9v24.3h-10.5V35.5H283v5.1
				c1.6-3,4.9-6.2,9.7-6.2c3,0,4.3,0.5,5.1,1.1L295.4,45z"/>
			<path id="Shape_6_" class="st0" d="M307.2,30.7c-3.5,0-5.9-2.7-5.9-5.9c0-3,2.4-5.7,5.9-5.7s5.9,2.7,5.9,5.7
				C313.2,28,310.7,30.7,307.2,30.7"/>
			<rect id="Rectangle-path" x="301.8" y="35.5" class="st0" width="10.5" height="38.5"/>
			<path id="Shape_7_" class="st0" d="M335.5,34.7c4.6,0,7.5,1.6,8.9,2.7V17.5h10.5V63c0,5.1,0.5,8.9,1.1,11h-10.5
				c-0.3-1.1-0.8-3-0.8-4.3c-2.4,2.7-5.7,5.1-10.8,5.1c-9.7,0-15.9-7.3-15.9-20.2C318.3,42.5,325.8,34.7,335.5,34.7 M337.4,66.5
				c3.8,0,6.5-2.7,7.3-3.8V45.5c-1.3-1.1-3.2-2.4-6.7-2.4c-5.4,0-8.4,4.6-8.4,12.1C329.6,62.2,332,66.5,337.4,66.5"/>
			<path id="Shape_8_" class="st0" d="M398.3,34.7v7.8h-5.1c1.1,1.9,1.3,4,1.3,6.2c0,8.4-5.9,14-16.4,14c-1.6,0-3.2-0.3-4.6-0.3
				c-0.5,0.5-1.3,1.1-1.3,2.2c0,2.2,2.2,2.4,7.8,2.7c8.1,0.3,18.1,0.5,18.1,11.9c0,8.1-8.4,14-21,14c-10.5,0-17-3.2-17-10.2
				c0-4.3,2.7-7.3,6.5-9.4c-2.2-1.3-3.5-3-3.5-5.9c0-3.5,2.2-5.9,4.3-7.3c-4.3-2.4-6.7-6.5-6.7-11.6c0-8.4,6.5-14,17-14L398.3,34.7
				 M368.9,80.8c0,3,2.2,5.1,7.5,5.1c6.5,0,10-2.4,10-5.7c0-4-3.5-4-9.2-4.3c-1.9-0.3-3.5-0.3-5.1-0.5
				C370,76.8,368.9,78.4,368.9,80.8 M384.6,48.7c0-4.6-2.7-7.3-7-7.3s-7,2.7-7,7.3c0,4.3,2.7,7.3,7,7.3
				C381.9,55.7,384.6,53.1,384.6,48.7"/>
			<path id="Shape_9_" class="st0" d="M421.2,67.3c5.1,0,8.1-1.9,10-2.7l3.5,6.7c-2.4,1.3-6.5,3.8-14.3,3.8
				c-12.9,0-20.2-8.1-20.2-20.5c0-12.1,8.4-19.9,19.1-19.9c12.1,0,17.8,8.4,16.4,22.6h-24.5C411.8,63.3,414.8,67.3,421.2,67.3
				L421.2,67.3z M425.8,50.1c0-4.3-1.9-7.8-6.7-7.8c-4.3,0-7,3-7.5,7.8H425.8z"/>
			<path id="Shape_10_" class="st0" d="M444.7,45.5c-3,0-5.4-2.4-5.4-5.4s2.4-5.4,5.4-5.4s5.4,2.4,5.4,5.4S447.6,45.5,444.7,45.5
				L444.7,45.5z M444.7,35.5c-2.7,0-4.6,1.9-4.6,4.6s1.9,4.6,4.6,4.6s4.6-1.9,4.6-4.6S447.4,35.5,444.7,35.5L444.7,35.5z
				 M446.3,43.4l-1.3-2.2c-0.3-0.5-0.5-0.5-1.1-0.5v3h-1.1V37h2.2c1.3,0,2.2,0.8,2.2,1.9s-0.5,1.6-1.6,1.6c0.3,0.3,0.5,0.5,0.8,0.8
				l1.3,2.2L446.3,43.4L446.3,43.4z M444.7,37.7h-0.8v1.9h0.5c0.8,0,1.3,0,1.3-1.1C445.7,38.2,445.5,37.7,444.7,37.7L444.7,37.7z"/>
		</g>
		<g id="Group_1_">
			<polygon id="Shape_11_" class="st0" points="51.4,55.7 51.7,55.7 51.7,55.7 			"/>
			<path id="Shape_12_" class="st0" d="M92.7,3.7L92.7,3.7L4,3.5v0.3v99.4h88.7V3.7L92.7,3.7z M73.3,71.6V76c-9.7,0-15.9-3-19.7-7
				c0.5,1.9,1.3,3.5,2.2,5.4c6.7,12.9,18.3,19.7,35,19.9v5.4c-23.7-0.3-35-12.7-40.2-23.2c-1.1-2.2-2.2-4.6-2.7-6.7
				c-7.8,19.4-29.4,19.7-29.6,19.7v-5.9c1.1,0,26.4-0.8,26.4-29.9h6.5c0-29.1,25.3-29.4,26.4-29.4v-5.9c-0.3,0-21.8,0.3-29.6,19.7
				c-0.8-2.2-1.6-4.6-2.7-6.7C40.1,20.7,28.8,8.3,5.1,8V5.3h85.7v48.5H51.7C51.4,54.1,52,71.6,73.3,71.6z M5.3,13.2
				c17,0.3,28.6,7,35,19.9c1.1,1.9,1.6,3.8,2.2,5.4c-3.8-3.8-10-7-19.7-7v4.3c21.6,0,21.8,16.7,21.8,17.5H5.3V13.2z"/>
		</g>
	</g>
</g>
</svg>
